Coordinates
version=1
nRows=20
nColumns=34
inDegrees=yes

Units are S.I. units (second, meters, Newtons, ...)
Angles are in degrees.

endheader
time	pelvis_tilt	pelvis_list	pelvis_rotation	pelvis_tx	pelvis_ty	pelvis_tz	hip_flexion_r	hip_adduction_r	hip_rotation_r	knee_angle_r	ankle_angle_r	subtalar_angle_r	mtp_angle_r	hip_flexion_l	hip_adduction_l	hip_rotation_l	knee_angle_l	socket_flexion	socket_adduction	socket_rotation	socket_tx	socket_ty	socket_tz	pros_ankle_rx	pros_ankle_ry	pros_ankle_rz	pros_ankle_tx	pros_ankle_ty	pros_ankle_tz	foot_flex	lumbar_extension	lumbar_bending	lumbar_rotation
      0.30000000	      0.32449787	     -5.12807532	      4.90695155	     -0.38953600	      1.04611441	      0.33750180	     11.13129593	     -1.27795327	    -15.25653365	    -64.88150111	     -2.06896311	     11.48649266	     14.73625675	     12.13396472	     -2.03675405	      6.33698638	    -16.05931147	     11.88380812	      0.00000000	      0.00000000	      0.00000000	     -0.01743091	      0.00000000	      0.00000000	      0.00000000	      0.00000000	      0.00000000	      0.00000000	      0.00000000	     10.58735566	    -10.99159959	     -2.56188878	    -25.34589384
      0.30416667	      0.39406675	     -5.18626328	      4.97959843	     -0.38430385	      1.04694048	      0.33729037	     11.67722219	     -1.25300444	    -15.31280576	    -64.88826713	     -1.10074508	     11.50084215	     14.77095480	     11.64637014	     -2.13339212	      6.36897938	    -15.91278971	     11.80421566	      0.00000000	      0.00000000	      0.00000000	     -0.01740082	      0.00000000	      0.00000000	      0.00000000	      0.00000000	      0.00000000	      0.00000000	      0.00000000	     10.68893446	    -11.01471061	     -2.46948696	    -25.51006893
      0.30833333	      0.46361826	     -5.24408537	      5.04984912	     -0.37909459	      1.04772803	      0.33709777	     12.20752575	     -1.23085672	    -15.38196486	    -64.83104327	     -0.18303642	     11.52348424	     14.79544524	     11.16550422	     -2.23124358	      6.40151013	    -15.77557838	     11.73215017	      0.00000000	      0.00000000	      0.00000000	     -0.01740901	      0.00000000	      0.00000000	      0.00000000	      0.00000000	      0.00000000	      0.00000000	      0.00000000	     10.78665776	    -11.03335916	     -2.37664188	    -25.66965539
      0.31250000	      0.52965823	     -5.25854925	      5.16813934	     -0.37386398	      1.04846392	      0.33675532	     12.71729245	     -1.34155509	    -15.57074097	    -64.76303342	      0.86224695	     11.99082285	     14.40430414	     10.69692326	     -2.26437522	      6.48769293	    -15.55239612	     11.82457050	      0.00000000	      0.00000000	      0.00000000	     -0.01721574	      0.00000000	      0.00000000	      0.00000000	      0.00000000	      0.00000000	      0.00000000	      0.00000000	     10.98402674	    -11.03886042	     -2.37943869	    -25.94428342
      0.31666667	      0.58224115	     -5.34125697	      5.22755130	     -0.36871784	      1.04920187	      0.33654322	     13.24611751	     -1.30561016	    -15.66654551	    -64.58062053	      1.57629270	     11.87268845	     14.44153423	     10.24254517	     -2.38960313	      6.49336735	    -15.40693420	     11.75927484	      0.00000000	      0.00000000	      0.00000000	     -0.01726381	      0.00000000	      0.00000000	      0.00000000	      0.00000000	      0.00000000	      0.00000000	      0.00000000	     11.02298864	    -11.06871377	     -2.19097771	    -26.04045021
      0.32083333	      0.64033592	     -5.44546367	      5.28913397	     -0.36364794	      1.04997051	      0.33637730	     13.75546058	     -1.19327098	    -15.71992536	    -64.31152301	      2.40896151	     11.82490235	     14.47378452	      9.80105439	     -2.53869891	      6.53093567	    -15.29062988	     11.68633116	      0.00000000	      0.00000000	      0.00000000	     -0.01717375	      0.00000000	      0.00000000	      0.00000000	      0.00000000	      0.00000000	      0.00000000	      0.00000000	     11.15252518	    -11.08956484	     -2.06129263	    -26.18062144
      0.32500000	      0.68569279	     -5.52926202	      5.34851227	     -0.35855374	      1.05068431	      0.33620533	     14.26479392	     -1.13571513	    -15.80905646	    -64.01074951	      3.13626570	     11.81069093	     14.49263730	      9.37288493	     -2.66602254	      6.54598096	    -15.16979801	     11.62656766	      0.00000000	      0.00000000	      0.00000000	     -0.01709434	      0.00000000	      0.00000000	      0.00000000	      0.00000000	      0.00000000	      0.00000000	      0.00000000	     11.23856403	    -11.10795692	     -1.92405737	    -26.31423566
      0.32916667	      0.72875575	     -5.61942884	      5.42147930	     -0.35351777	      1.05138578	      0.33603899	     14.76507189	     -1.06759703	    -15.90590480	    -63.64841778	      3.83607044	     11.82711806	     14.50221830	      8.95910680	     -2.80129300	      6.56821262	    -15.05265696	     11.56317652	      0.00000000	      0.00000000	      0.00000000	     -0.01693209	      0.00000000	      0.00000000	      0.00000000	      0.00000000	      0.00000000	      0.00000000	      0.00000000	     11.34312606	    -11.12534111	     -1.79110588	    -26.45267535
      0.33333333	      0.77816539	     -5.72293751	      5.47279912	     -0.34849299	      1.05203952	      0.33583474	     15.24356646	     -0.99913285	    -16.01603772	    -63.24332801	      4.51338402	     11.88104611	     14.48758774	      8.54916415	     -2.94363085	      6.60471299	    -14.95683769	     11.52472265	      0.00000000	      0.00000000	      0.00000000	     -0.01688841	      0.00000000	      0.00000000	      0.00000000	      0.00000000	      0.00000000	      0.00000000	      0.00000000	     11.45087824	    -11.14998452	     -1.63070723	    -26.60686763
      0.33750000	      0.81633691	     -5.81089398	      5.53924376	     -0.34347588	      1.05268929	      0.33566388	     15.71347163	     -0.94574644	    -16.13878436	    -62.77098155	      5.10981626	     11.92551816	     14.46570776	      8.14901466	     -3.07467976	      6.62958735	    -14.84764992	     11.47781892	      0.00000000	      0.00000000	      0.00000000	     -0.01673072	      0.00000000	      0.00000000	      0.00000000	      0.00000000	      0.00000000	      0.00000000	      0.00000000	     11.54951619	    -11.16595829	     -1.49554187	    -26.74203304
      0.34166667	      0.85060098	     -5.90259597	      5.60334914	     -0.33850143	      1.05329507	      0.33547601	     16.17718194	     -0.88849531	    -16.26068733	    -62.25316925	      5.65723422	     11.97556939	     14.43318737	      7.76180623	     -3.20614878	      6.65557484	    -14.74736163	     11.43373495	      0.00000000	      0.00000000	      0.00000000	     -0.01657794	      0.00000000	      0.00000000	      0.00000000	      0.00000000	      0.00000000	      0.00000000	      0.00000000	     11.65838690	    -11.19549681	     -1.35537747	    -26.87786937
      0.34583333	      0.85099858	     -5.91288598	      5.64251491	     -0.33362811	      1.05379505	      0.33536921	     16.70405786	     -0.93706452	    -16.36354698	    -61.73760165	      5.88105275	     11.97178970	     14.42785930	      7.42017667	     -3.24816209	      6.65814067	    -14.69015228	     11.35639851	      0.00000000	      0.00000000	      0.00000000	     -0.01626238	      0.00000000	      0.00000000	      0.00000000	      0.00000000	      0.00000000	      0.00000000	      0.00000000	     11.79336204	    -11.28263405	     -1.31483682	    -26.91251070
      0.35000000	      0.89115668	     -6.06885437	      5.71480397	     -0.32852533	      1.05446101	      0.33525313	     17.07240560	     -0.75410215	    -16.48344144	    -61.03419798	      6.64190241	     12.00512700	     14.42090707	      7.01186249	     -3.46254767	      6.67688052	    -14.55610755	     11.31224337	      0.00000000	      0.00000000	      0.00000000	     -0.01619625	      0.00000000	      0.00000000	      0.00000000	      0.00000000	      0.00000000	      0.00000000	      0.00000000	     11.83129873	    -11.20771592	     -1.12887709	    -27.08837083
      0.35416667	      0.93653528	     -6.19042684	      5.78377846	     -0.32360979	      1.05499617	      0.33507564	     17.48263947	     -0.64453932	    -16.61174258	    -60.37128314	      7.13037401	     12.06505103	     14.35441595	      6.62695427	     -3.62917868	      6.71424047	    -14.45956875	     11.27095377	      0.00000000	      0.00000000	      0.00000000	     -0.01607167	      0.00000000	      0.00000000	      0.00000000	      0.00000000	      0.00000000	      0.00000000	      0.00000000	     11.95778904	    -11.25901842	     -0.91986951	    -27.25742475
      0.35833333	      0.96306646	     -6.26755576	      5.85665152	     -0.31869636	      1.05551936	      0.33497461	     17.88743579	     -0.57794979	    -16.73575491	    -59.64455236	      7.51697490	     12.08888215	     14.28505497	      6.26114739	     -3.75223748	      6.73763803	    -14.36631167	     11.23318584	      0.00000000	      0.00000000	      0.00000000	     -0.01584071	      0.00000000	      0.00000000	      0.00000000	      0.00000000	      0.00000000	      0.00000000	      0.00000000	     12.05782944	    -11.29428771	     -0.79975978	    -27.37806065
      0.36250000	      0.94640120	     -6.24997167	      5.88088355	     -0.31391652	      1.05585242	      0.33492764	     18.40877881	     -0.64966702	    -16.82482234	    -59.02454956	      7.68823801	     12.07974168	     14.26912112	      5.94516958	     -3.76462620	      6.74026984	    -14.31675030	     11.15576121	      0.00000000	      0.00000000	      0.00000000	     -0.01550233	      0.00000000	      0.00000000	      0.00000000	      0.00000000	      0.00000000	      0.00000000	      0.00000000	     12.20069042	    -11.40314944	     -0.75648873	    -27.40492008
      0.36666667	      1.02127625	     -6.45980147	      5.98146241	     -0.30882982	      1.05649214	      0.33478760	     18.64615351	     -0.37082177	    -16.95888256	    -58.06585046	      8.26982192	     12.07833735	     14.14489441	      5.50971385	     -4.04434789	      6.77316429	    -14.16307472	     11.13451093	      0.00000000	      0.00000000	      0.00000000	     -0.01547649	      0.00000000	      0.00000000	      0.00000000	      0.00000000	      0.00000000	      0.00000000	      0.00000000	     12.25614143	    -11.34881803	     -0.47062474	    -27.63925603
      0.37083333	      0.99431692	     -6.42640514	      6.00648280	     -0.30410384	      1.05673033	      0.33477710	     19.15722439	     -0.45198771	    -17.03957564	    -57.38412490	      8.42313868	     12.06329781	     14.12208845	      5.21154432	     -4.04039366	      6.77761721	    -14.11675212	     11.05958812	      0.00000000	      0.00000000	      0.00000000	     -0.01512692	      0.00000000	      0.00000000	      0.00000000	      0.00000000	      0.00000000	      0.00000000	      0.00000000	     12.39861675	    -11.47462151	     -0.44860179	    -27.65936685
      0.37500000	      1.29405944	     -6.66033744	      6.18346509	     -0.29914848	      1.05775334	      0.33458989	     19.07329448	     -0.07903329	    -17.18960107	    -56.22107988	      8.82672915	     11.84442429	     13.21026750	      4.54008821	     -4.37880660	      6.85406564	    -13.75149532	     11.34313267	      0.00000000	      0.00000000	      0.00000000	     -0.01496088	      0.00000000	      0.00000000	      0.00000000	      0.00000000	      0.00000000	      0.00000000	      0.00000000	     12.56491055	    -11.78041227	     -0.11816468	    -27.96993096
      0.37916667	      1.25014096	     -6.60788110	      6.18810726	     -0.29442265	      1.05787560	      0.33462201	     19.58486101	     -0.18186157	    -17.25967587	    -55.50848171	      8.99162160	     11.83251556	     13.19594774	      4.25470081	     -4.35243105	      6.84787107	    -13.70647592	     11.26705305	      0.00000000	      0.00000000	      0.00000000	     -0.01471289	      0.00000000	      0.00000000	      0.00000000	      0.00000000	      0.00000000	      0.00000000	      0.00000000	     12.71211910	    -11.87698808	     -0.10945033	    -27.97528419
